<svg width="632" height="561" viewBox="0 0 632 561" fill="none" xmlns="http://www.w3.org/2000/svg">
<g filter="url(#filter0_d_200_17)">
<path d="M485.969 367.338C482.927 373.551 474.195 369.275 477.237 363.063C480.279 356.85 479.84 357.748 479.84 357.748C481.435 354.49 483.716 352.115 486.681 350.626C488.485 349.744 491.053 348.786 494.384 347.75C495.012 347.587 496.121 347.287 497.708 346.848C504.576 344.916 509.088 341.831 511.242 337.591C513.473 333.035 513.083 328.825 510.074 324.959L507.572 322.498C506.589 321.703 505.481 321.003 504.247 320.399C498.932 317.797 494.388 317.905 490.615 320.725C488.423 322.397 488.098 322.343 484.284 329.45C480.469 336.556 472.681 332.24 476.027 325.407C479.373 318.573 483.423 313.987 488.177 311.648C492.962 309.324 498.428 309.255 504.574 311.441C505.885 311.887 507.189 312.427 508.487 313.062C516.648 317.059 521.216 322.629 522.189 329.773L522.314 333.482C522.148 336.303 521.384 339.106 520.021 341.89C517.806 346.413 514.1 349.776 508.904 351.977C506.942 352.86 504.57 353.699 501.789 354.494C495.864 356.26 492.144 357.851 490.628 359.265C489.768 360.06 488.958 361.233 488.199 362.783C488.199 362.783 489.011 361.126 485.969 367.338Z" fill="#69DDC5"/>
<circle cx="474.705" cy="379.447" r="5.09219" transform="rotate(26.0896 474.705 379.447)" fill="#69DDC5"/>
</g>
<path d="M121.022 217H435.022V367C435.022 378.046 426.068 387 415.022 387H141.022C129.976 387 121.022 378.046 121.022 367V217Z" fill="#3C8475"/>
<g filter="url(#filter1_d_200_17)">
<path d="M260.429 36.475C260.429 36.475 254.941 47.9991 290.062 99.5836C325.184 151.168 345.488 144.583 393.78 184.094C442.072 223.606 481.584 349.275 481.584 349.275" stroke="url(#paint0_linear_200_17)" stroke-width="6" stroke-linecap="round" shape-rendering="crispEdges"/>
</g>
<g filter="url(#filter2_d_200_17)">
<path d="M278.849 20.5607C278.849 20.5607 273.361 32.0848 308.483 83.6693C343.604 135.254 363.909 128.669 412.201 168.18C460.492 207.692 500.004 333.36 500.004 333.36" stroke="url(#paint1_linear_200_17)" stroke-width="6" stroke-linecap="round" shape-rendering="crispEdges"/>
</g>
<g filter="url(#filter3_d_200_17)">
<path d="M299.702 3C299.702 3 294.214 14.5241 329.336 66.1086C364.457 117.693 384.762 111.108 433.054 150.619C481.345 190.131 520.857 315.8 520.857 315.8" stroke="url(#paint2_linear_200_17)" stroke-width="6" stroke-linecap="round" shape-rendering="crispEdges"/>
</g>
<circle cx="144.876" cy="80.9254" r="4.39017" fill="#2F312F" fill-opacity="0.4"/>
<circle cx="144.876" cy="151.168" r="4.39017" fill="#2F312F" fill-opacity="0.4"/>
<circle cx="179.997" cy="80.9254" r="4.39017" fill="#2F312F" fill-opacity="0.4"/>
<circle cx="232.68" cy="80.9254" r="4.39017" fill="#2F312F" fill-opacity="0.4"/>
<circle cx="179.997" cy="151.168" r="4.39017" fill="#2F312F" fill-opacity="0.4"/>
<circle cx="232.68" cy="151.168" r="4.39017" fill="#2F312F" fill-opacity="0.4"/>
<circle cx="171.217" cy="89.7057" r="4.39017" fill="#2F312F" fill-opacity="0.4"/>
<circle cx="223.899" cy="89.7057" r="4.39017" fill="#2F312F" fill-opacity="0.4"/>
<circle cx="171.217" cy="159.949" r="4.39017" fill="#2F312F" fill-opacity="0.4"/>
<circle cx="223.899" cy="159.949" r="4.39017" fill="#2F312F" fill-opacity="0.4"/>
<circle cx="171.217" cy="107.266" r="4.39017" fill="#2F312F" fill-opacity="0.4"/>
<circle cx="223.899" cy="107.266" r="4.39017" fill="#2F312F" fill-opacity="0.4"/>
<circle cx="171.217" cy="177.509" r="4.39017" fill="#2F312F" fill-opacity="0.4"/>
<circle cx="223.899" cy="177.509" r="4.39017" fill="#2F312F" fill-opacity="0.4"/>
<circle cx="171.217" cy="124.827" r="4.39017" fill="#2F312F" fill-opacity="0.4"/>
<circle cx="223.899" cy="124.827" r="4.39017" fill="#2F312F" fill-opacity="0.4"/>
<circle cx="171.217" cy="195.07" r="4.39017" fill="#2F312F" fill-opacity="0.4"/>
<circle cx="223.899" cy="195.07" r="4.39017" fill="#2F312F" fill-opacity="0.4"/>
<circle cx="144.876" cy="116.047" r="4.39017" fill="#2F312F" fill-opacity="0.4"/>
<circle cx="144.876" cy="186.29" r="4.39017" fill="#2F312F" fill-opacity="0.4"/>
<circle cx="179.997" cy="116.047" r="4.39017" fill="#2F312F" fill-opacity="0.4"/>
<circle cx="232.68" cy="116.047" r="4.39017" fill="#2F312F" fill-opacity="0.4"/>
<circle cx="179.997" cy="186.29" r="4.39017" fill="#2F312F" fill-opacity="0.4"/>
<circle cx="232.68" cy="186.29" r="4.39017" fill="#2F312F" fill-opacity="0.4"/>
<circle cx="153.656" cy="89.7057" r="4.39017" fill="#2F312F" fill-opacity="0.4"/>
<circle cx="206.338" cy="89.7057" r="4.39017" fill="#2F312F" fill-opacity="0.4"/>
<circle cx="153.656" cy="159.949" r="4.39017" fill="#2F312F" fill-opacity="0.4"/>
<circle cx="206.338" cy="159.949" r="4.39017" fill="#2F312F" fill-opacity="0.4"/>
<circle cx="188.778" cy="89.7057" r="4.39017" fill="#2F312F" fill-opacity="0.4"/>
<circle cx="241.46" cy="89.7057" r="4.39017" fill="#2F312F" fill-opacity="0.4"/>
<circle cx="259.021" cy="89.7057" r="4.39017" fill="#2F312F" fill-opacity="0.4"/>
<circle cx="188.778" cy="159.949" r="4.39017" fill="#2F312F" fill-opacity="0.4"/>
<circle cx="241.46" cy="159.949" r="4.39017" fill="#2F312F" fill-opacity="0.4"/>
<circle cx="259.021" cy="159.949" r="4.39017" fill="#2F312F" fill-opacity="0.4"/>
<circle cx="153.656" cy="124.827" r="4.39017" fill="#2F312F" fill-opacity="0.4"/>
<circle cx="206.338" cy="124.827" r="4.39017" fill="#2F312F" fill-opacity="0.4"/>
<circle cx="153.656" cy="195.07" r="4.39017" fill="#2F312F" fill-opacity="0.4"/>
<circle cx="206.338" cy="195.07" r="4.39017" fill="#2F312F" fill-opacity="0.4"/>
<circle cx="188.778" cy="124.827" r="4.39017" fill="#2F312F" fill-opacity="0.4"/>
<circle cx="241.46" cy="124.827" r="4.39017" fill="#2F312F" fill-opacity="0.4"/>
<circle cx="259.021" cy="124.827" r="4.39017" fill="#2F312F" fill-opacity="0.4"/>
<circle cx="188.778" cy="195.07" r="4.39017" fill="#2F312F" fill-opacity="0.4"/>
<circle cx="241.46" cy="195.07" r="4.39017" fill="#2F312F" fill-opacity="0.4"/>
<circle cx="259.021" cy="195.07" r="4.39017" fill="#2F312F" fill-opacity="0.4"/>
<circle cx="162.437" cy="80.9254" r="4.39017" fill="#2F312F" fill-opacity="0.4"/>
<circle cx="215.119" cy="80.9254" r="4.39017" fill="#2F312F" fill-opacity="0.4"/>
<circle cx="162.437" cy="151.168" r="4.39017" fill="#2F312F" fill-opacity="0.4"/>
<circle cx="215.119" cy="151.168" r="4.39017" fill="#2F312F" fill-opacity="0.4"/>
<circle cx="197.558" cy="80.9254" r="4.39017" fill="#2F312F" fill-opacity="0.4"/>
<circle cx="250.24" cy="80.9254" r="4.39017" fill="#2F312F" fill-opacity="0.4"/>
<circle cx="267.801" cy="80.9254" r="4.39017" fill="#2F312F" fill-opacity="0.4"/>
<circle cx="197.558" cy="151.168" r="4.39017" fill="#2F312F" fill-opacity="0.4"/>
<circle cx="250.24" cy="151.168" r="4.39017" fill="#2F312F" fill-opacity="0.4"/>
<circle cx="267.801" cy="151.168" r="4.39017" fill="#2F312F" fill-opacity="0.4"/>
<circle cx="162.437" cy="116.047" r="4.39017" fill="#2F312F" fill-opacity="0.4"/>
<circle cx="215.119" cy="116.047" r="4.39017" fill="#2F312F" fill-opacity="0.4"/>
<circle cx="162.437" cy="186.29" r="4.39017" fill="#2F312F" fill-opacity="0.4"/>
<circle cx="215.119" cy="186.29" r="4.39017" fill="#2F312F" fill-opacity="0.4"/>
<circle cx="197.558" cy="116.047" r="4.39017" fill="#2F312F" fill-opacity="0.4"/>
<circle cx="250.24" cy="116.047" r="4.39017" fill="#2F312F" fill-opacity="0.4"/>
<circle cx="267.801" cy="116.047" r="4.39017" fill="#2F312F" fill-opacity="0.4"/>
<circle cx="197.558" cy="186.29" r="4.39017" fill="#2F312F" fill-opacity="0.4"/>
<circle cx="250.24" cy="186.29" r="4.39017" fill="#2F312F" fill-opacity="0.4"/>
<circle cx="267.801" cy="186.29" r="4.39017" fill="#2F312F" fill-opacity="0.4"/>
<circle cx="162.437" cy="98.4861" r="4.39017" fill="#2F312F" fill-opacity="0.4"/>
<circle cx="215.119" cy="98.4861" r="4.39017" fill="#2F312F" fill-opacity="0.4"/>
<circle cx="162.437" cy="168.729" r="4.39017" fill="#2F312F" fill-opacity="0.4"/>
<circle cx="215.119" cy="168.729" r="4.39017" fill="#2F312F" fill-opacity="0.4"/>
<circle cx="197.558" cy="98.4861" r="4.39017" fill="#2F312F" fill-opacity="0.4"/>
<circle cx="250.24" cy="98.4861" r="4.39017" fill="#2F312F" fill-opacity="0.4"/>
<circle cx="267.801" cy="98.4861" r="4.39017" fill="#2F312F" fill-opacity="0.4"/>
<circle cx="197.558" cy="168.729" r="4.39017" fill="#2F312F" fill-opacity="0.4"/>
<circle cx="250.24" cy="168.729" r="4.39017" fill="#2F312F" fill-opacity="0.4"/>
<circle cx="267.801" cy="168.729" r="4.39017" fill="#2F312F" fill-opacity="0.4"/>
<circle cx="162.437" cy="133.607" r="4.39017" fill="#2F312F" fill-opacity="0.4"/>
<circle cx="215.119" cy="133.607" r="4.39017" fill="#2F312F" fill-opacity="0.4"/>
<circle cx="171.217" cy="142.388" r="4.39017" fill="#2F312F" fill-opacity="0.4"/>
<circle cx="223.899" cy="142.388" r="4.39017" fill="#2F312F" fill-opacity="0.4"/>
<circle cx="162.437" cy="203.85" r="4.39017" fill="#2F312F" fill-opacity="0.4"/>
<circle cx="215.119" cy="203.85" r="4.39017" fill="#2F312F" fill-opacity="0.4"/>
<circle cx="197.558" cy="133.607" r="4.39017" fill="#2F312F" fill-opacity="0.4"/>
<circle cx="250.24" cy="133.607" r="4.39017" fill="#2F312F" fill-opacity="0.4"/>
<circle cx="267.801" cy="133.607" r="4.39017" fill="#2F312F" fill-opacity="0.4"/>
<circle cx="197.558" cy="203.85" r="4.39017" fill="#2F312F" fill-opacity="0.4"/>
<circle cx="250.24" cy="203.85" r="4.39017" fill="#2F312F" fill-opacity="0.4"/>
<circle cx="267.801" cy="203.85" r="4.39017" fill="#2F312F" fill-opacity="0.4"/>
<circle cx="144.876" cy="98.4861" r="4.39017" fill="#2F312F" fill-opacity="0.4"/>
<circle cx="144.876" cy="168.729" r="4.39017" fill="#2F312F" fill-opacity="0.4"/>
<circle cx="179.997" cy="98.4861" r="4.39017" fill="#2F312F" fill-opacity="0.4"/>
<circle cx="232.68" cy="98.4861" r="4.39017" fill="#2F312F" fill-opacity="0.4"/>
<circle cx="179.997" cy="168.729" r="4.39017" fill="#2F312F" fill-opacity="0.4"/>
<circle cx="232.68" cy="168.729" r="4.39017" fill="#2F312F" fill-opacity="0.4"/>
<circle cx="153.656" cy="107.266" r="4.39017" fill="#2F312F" fill-opacity="0.4"/>
<circle cx="206.338" cy="107.266" r="4.39017" fill="#2F312F" fill-opacity="0.4"/>
<circle cx="153.656" cy="177.509" r="4.39017" fill="#2F312F" fill-opacity="0.4"/>
<circle cx="206.338" cy="177.509" r="4.39017" fill="#2F312F" fill-opacity="0.4"/>
<circle cx="188.778" cy="107.266" r="4.39017" fill="#2F312F" fill-opacity="0.4"/>
<circle cx="241.46" cy="107.266" r="4.39017" fill="#2F312F" fill-opacity="0.4"/>
<circle cx="259.021" cy="107.266" r="4.39017" fill="#2F312F" fill-opacity="0.4"/>
<circle cx="188.778" cy="177.509" r="4.39017" fill="#2F312F" fill-opacity="0.4"/>
<circle cx="241.46" cy="177.509" r="4.39017" fill="#2F312F" fill-opacity="0.4"/>
<circle cx="259.021" cy="177.509" r="4.39017" fill="#2F312F" fill-opacity="0.4"/>
<circle cx="144.876" cy="133.607" r="4.39017" fill="#2F312F" fill-opacity="0.4"/>
<circle cx="153.656" cy="142.388" r="4.39017" fill="#2F312F" fill-opacity="0.4"/>
<circle cx="206.338" cy="142.388" r="4.39017" fill="#2F312F" fill-opacity="0.4"/>
<circle cx="144.876" cy="203.85" r="4.39017" fill="#2F312F" fill-opacity="0.4"/>
<circle cx="179.997" cy="133.607" r="4.39017" fill="#2F312F" fill-opacity="0.4"/>
<circle cx="232.68" cy="133.607" r="4.39017" fill="#2F312F" fill-opacity="0.4"/>
<circle cx="188.778" cy="142.388" r="4.39017" fill="#2F312F" fill-opacity="0.4"/>
<circle cx="241.46" cy="142.388" r="4.39017" fill="#2F312F" fill-opacity="0.4"/>
<circle cx="259.021" cy="142.388" r="4.39017" fill="#2F312F" fill-opacity="0.4"/>
<circle cx="179.997" cy="203.85" r="4.39017" fill="#2F312F" fill-opacity="0.4"/>
<circle cx="232.68" cy="203.85" r="4.39017" fill="#2F312F" fill-opacity="0.4"/>
<path d="M275.817 109.456C277.154 108.573 278.89 108.573 280.227 109.456L431.915 209.662C435.224 211.849 433.676 217 429.71 217H126.334C122.368 217 120.82 211.849 124.129 209.662L275.817 109.456Z" fill="#3C8475"/>
<mask id="mask0_200_17" style="mask-type:alpha" maskUnits="userSpaceOnUse" x="44" y="266" width="157" height="157">
<circle cx="122.925" cy="344.336" r="77.9255" fill="#D9D9D9"/>
</mask>
<g mask="url(#mask0_200_17)">
<path d="M-32.9263 339.397L115.791 190.68M-19.207 349.823L129.51 201.106M-4.93894 364.091L143.778 215.375M12.6217 371.774L161.339 223.057M26.341 382.201L175.058 233.484M40.6091 396.469L189.326 247.752M54.8771 409.091L203.594 260.374M68.5964 419.517L217.313 270.8M82.8645 433.785L231.581 285.068M100.425 441.468L249.142 292.751M114.144 451.895L262.861 303.178M128.412 466.163L277.129 317.446" stroke="#4FB19D" stroke-opacity="0.19" stroke-width="6" stroke-linecap="round"/>
</g>
<rect x="167.924" y="99.5837" width="227.191" height="272.19" rx="20" fill="#EEEEEB"/>
<rect x="185.485" y="128.12" width="192.07" height="3.29263" rx="1.64631" fill="#CFCBCB"/>
<rect x="183.29" y="207.143" width="192.07" height="3.29263" rx="1.64631" fill="#CFCBCB"/>
<rect x="183.29" y="286.166" width="192.07" height="3.29263" rx="1.64631" fill="#CFCBCB"/>
<rect x="185.485" y="167.631" width="192.07" height="3.29263" rx="1.64631" fill="#CFCBCB"/>
<rect x="183.29" y="246.654" width="192.07" height="3.29263" rx="1.64631" fill="#CFCBCB"/>
<rect x="183.29" y="325.677" width="192.07" height="3.29263" rx="1.64631" fill="#CFCBCB"/>
<rect x="185.485" y="147.876" width="192.07" height="3.29263" rx="1.64631" fill="#CFCBCB"/>
<rect x="183.29" y="226.899" width="192.07" height="3.29263" rx="1.64631" fill="#CFCBCB"/>
<rect x="183.29" y="305.922" width="192.07" height="3.29263" rx="1.64631" fill="#CFCBCB"/>
<rect x="185.485" y="187.387" width="192.07" height="3.29263" rx="1.64631" fill="#CFCBCB"/>
<rect x="183.29" y="266.41" width="192.07" height="3.29263" rx="1.64631" fill="#CFCBCB"/>
<rect x="183.29" y="345.433" width="192.07" height="3.29263" rx="1.64631" fill="#CFCBCB"/>
<path d="M300.778 313.043C288.065 305.237 288.065 286.763 300.778 278.957L413.557 209.707C426.883 201.524 444.022 211.113 444.022 226.75V365.25C444.022 380.887 426.883 390.476 413.557 382.293L300.778 313.043Z" fill="#4FB19D"/>
<path d="M254.059 278.929C266.831 286.726 266.831 305.274 254.059 313.071L140.443 382.429C127.116 390.565 110.022 380.973 110.022 365.359V226.641C110.022 211.027 127.116 201.435 140.443 209.571L254.059 278.929Z" fill="#4FB19D"/>
<g filter="url(#filter4_d_200_17)">
<path d="M268.942 282.075C274.371 279.496 280.673 279.496 286.102 282.075L426.874 348.934C446.137 358.083 439.618 387 418.294 387H136.75C115.425 387 108.907 358.083 128.17 348.934L268.942 282.075Z" fill="#69DDC5"/>
</g>
<g filter="url(#filter5_d_200_17)">
<circle cx="78.5273" cy="182.501" r="36.5115" transform="rotate(-24.0563 78.5273 182.501)" stroke="#69DDC5" stroke-width="6"/>
<path d="M75.2091 161.939C75.7931 161.678 76.3617 161.662 76.915 161.889C77.4598 162.098 77.8668 162.503 78.1359 163.106C78.5059 163.935 78.5418 164.8 78.2438 165.701C77.9562 166.575 77.4545 167.171 76.7388 167.491C76.1737 167.743 75.6145 167.756 75.0612 167.528C74.5079 167.301 74.0883 166.867 73.8024 166.227C73.4241 165.379 73.3777 164.541 73.6632 163.714C73.9404 162.867 74.4557 162.275 75.2091 161.939ZM72.4267 185.613L70.7547 185.207C71.7134 182.294 72.7716 180.06 73.9294 178.504C75.0975 176.921 76.2279 175.885 77.3203 175.397C77.9231 175.128 78.4434 175.054 78.8814 175.175C79.3193 175.296 79.6392 175.582 79.841 176.034C80.0848 176.58 80.5069 179.171 81.1072 183.804C82.0956 191.383 82.8967 195.859 83.5105 197.234C83.6282 197.498 83.795 197.694 84.011 197.824C84.2185 197.935 84.3976 197.956 84.5483 197.889C85.151 197.62 86.1743 195.763 87.618 192.317L89.1991 192.899C87.7033 196.481 86.5134 198.875 85.6295 200.083C84.7455 201.291 83.9268 202.063 83.1734 202.399C82.5141 202.694 81.8942 202.722 81.3137 202.484C80.752 202.238 80.3072 201.748 79.9792 201.013C78.9282 198.658 77.7721 192.273 76.511 181.858C76.4494 181.366 76.343 180.95 76.1916 180.611C76.0235 180.235 75.7698 180.122 75.4308 180.273C75.0541 180.441 74.6881 180.785 74.3329 181.305C73.9966 181.817 73.3612 183.253 72.4267 185.613Z" fill="#69DDC5"/>
</g>
<circle cx="32.9263" cy="356.408" r="28.9263" stroke="#2F312F" stroke-width="8"/>
<circle cx="134.998" cy="356.408" r="28.9263" stroke="#2F312F" stroke-width="8"/>
<path d="M56.5235 310.312L34.9441 352.957C34.2709 354.287 35.2377 355.86 36.7286 355.86H80.1206M56.5235 310.312L80.1206 355.86M56.5235 310.312H114.232C115.933 310.312 116.857 312.301 115.76 313.601L80.1206 355.86M56.5235 310.312L48.8407 293.849M97.6813 286.166L100.47 288.025C100.799 288.244 101.185 288.361 101.58 288.361H114.793C115.704 288.361 116.5 288.976 116.729 289.857L133.9 355.86" stroke="#2F312F" stroke-width="8" stroke-linecap="round" stroke-linejoin="round"/>
<path d="M37.8652 290.556H65.8526L38.9628 298.239L37.8652 290.556Z" fill="#2F312F" stroke="#2F312F" stroke-width="5" stroke-linecap="round" stroke-linejoin="round"/>
<path d="M494.022 517.841C441.887 546.956 379.801 557.744 320.93 547.922C304.125 545.114 286.069 539.652 276.658 525.415C270.11 515.512 270.155 499.938 280.242 493.709C288.464 488.644 299.46 491.931 307.178 497.736C317.094 505.184 324.181 517.606 322.065 529.839C320.165 540.808 311.24 549.565 301.036 553.962C290.833 558.349 279.449 559.026 268.345 558.999C235.969 558.918 203.828 553.384 172.253 546.171C146.749 540.338 120.893 533.125 99.5404 517.976C78.1876 502.818 61.8781 478.199 63.0848 452" stroke="#69DDC5" stroke-width="3" stroke-miterlimit="10" stroke-linecap="round"/>
<path d="M482.741 470.135L602.542 409.665L427.378 463.218L482.741 470.135Z" fill="#69DDC5"/>
<path d="M493.775 519.215L509.659 480.185L530.255 492.962L493.775 519.215Z" fill="#3C8475"/>
<path d="M482.741 470.135L602.542 409.665L509.657 480.185L493.773 519.216L482.741 470.135Z" fill="#4FB19D"/>
<path d="M577.362 522.271L602.542 409.665L509.657 480.185L577.362 522.271Z" fill="#69DDC5"/>
<defs>
<filter id="filter0_d_200_17" x="465.612" y="305.851" width="60.7021" height="82.6892" filterUnits="userSpaceOnUse" color-interpolation-filters="sRGB">
<feFlood flood-opacity="0" result="BackgroundImageFix"/>
<feColorMatrix in="SourceAlpha" type="matrix" values="0 0 0 0 0 0 0 0 0 0 0 0 0 0 0 0 0 0 127 0" result="hardAlpha"/>
<feOffset/>
<feGaussianBlur stdDeviation="2"/>
<feComposite in2="hardAlpha" operator="out"/>
<feColorMatrix type="matrix" values="0 0 0 0 0.411765 0 0 0 0 0.866667 0 0 0 0 0.772549 0 0 0 1 0"/>
<feBlend mode="normal" in2="BackgroundImageFix" result="effect1_dropShadow_200_17"/>
<feBlend mode="normal" in="SourceGraphic" in2="effect1_dropShadow_200_17" result="shape"/>
</filter>
<filter id="filter1_d_200_17" x="253.118" y="33.4742" width="235.467" height="326.801" filterUnits="userSpaceOnUse" color-interpolation-filters="sRGB">
<feFlood flood-opacity="0" result="BackgroundImageFix"/>
<feColorMatrix in="SourceAlpha" type="matrix" values="0 0 0 0 0 0 0 0 0 0 0 0 0 0 0 0 0 0 127 0" result="hardAlpha"/>
<feOffset dy="4"/>
<feGaussianBlur stdDeviation="2"/>
<feComposite in2="hardAlpha" operator="out"/>
<feColorMatrix type="matrix" values="0 0 0 0 0.411765 0 0 0 0 0.866667 0 0 0 0 0.772549 0 0 0 0.41 0"/>
<feBlend mode="normal" in2="BackgroundImageFix" result="effect1_dropShadow_200_17"/>
<feBlend mode="normal" in="SourceGraphic" in2="effect1_dropShadow_200_17" result="shape"/>
</filter>
<filter id="filter2_d_200_17" x="271.538" y="17.5599" width="235.467" height="326.801" filterUnits="userSpaceOnUse" color-interpolation-filters="sRGB">
<feFlood flood-opacity="0" result="BackgroundImageFix"/>
<feColorMatrix in="SourceAlpha" type="matrix" values="0 0 0 0 0 0 0 0 0 0 0 0 0 0 0 0 0 0 127 0" result="hardAlpha"/>
<feOffset dy="4"/>
<feGaussianBlur stdDeviation="2"/>
<feComposite in2="hardAlpha" operator="out"/>
<feColorMatrix type="matrix" values="0 0 0 0 0.411765 0 0 0 0 0.866667 0 0 0 0 0.772549 0 0 0 0.41 0"/>
<feBlend mode="normal" in2="BackgroundImageFix" result="effect1_dropShadow_200_17"/>
<feBlend mode="normal" in="SourceGraphic" in2="effect1_dropShadow_200_17" result="shape"/>
</filter>
<filter id="filter3_d_200_17" x="292.391" y="-0.000732422" width="235.467" height="326.801" filterUnits="userSpaceOnUse" color-interpolation-filters="sRGB">
<feFlood flood-opacity="0" result="BackgroundImageFix"/>
<feColorMatrix in="SourceAlpha" type="matrix" values="0 0 0 0 0 0 0 0 0 0 0 0 0 0 0 0 0 0 127 0" result="hardAlpha"/>
<feOffset dy="4"/>
<feGaussianBlur stdDeviation="2"/>
<feComposite in2="hardAlpha" operator="out"/>
<feColorMatrix type="matrix" values="0 0 0 0 0.411765 0 0 0 0 0.866667 0 0 0 0 0.772549 0 0 0 0.41 0"/>
<feBlend mode="normal" in2="BackgroundImageFix" result="effect1_dropShadow_200_17"/>
<feBlend mode="normal" in="SourceGraphic" in2="effect1_dropShadow_200_17" result="shape"/>
</filter>
<filter id="filter4_d_200_17" x="112.722" y="275.141" width="329.601" height="114.859" filterUnits="userSpaceOnUse" color-interpolation-filters="sRGB">
<feFlood flood-opacity="0" result="BackgroundImageFix"/>
<feColorMatrix in="SourceAlpha" type="matrix" values="0 0 0 0 0 0 0 0 0 0 0 0 0 0 0 0 0 0 127 0" result="hardAlpha"/>
<feOffset dy="-1"/>
<feGaussianBlur stdDeviation="2"/>
<feComposite in2="hardAlpha" operator="out"/>
<feColorMatrix type="matrix" values="0 0 0 0 0 0 0 0 0 0 0 0 0 0 0 0 0 0 0.25 0"/>
<feBlend mode="normal" in2="BackgroundImageFix" result="effect1_dropShadow_200_17"/>
<feBlend mode="normal" in="SourceGraphic" in2="effect1_dropShadow_200_17" result="shape"/>
</filter>
<filter id="filter5_d_200_17" x="31.0059" y="134.979" width="95.043" height="95.0427" filterUnits="userSpaceOnUse" color-interpolation-filters="sRGB">
<feFlood flood-opacity="0" result="BackgroundImageFix"/>
<feColorMatrix in="SourceAlpha" type="matrix" values="0 0 0 0 0 0 0 0 0 0 0 0 0 0 0 0 0 0 127 0" result="hardAlpha"/>
<feOffset/>
<feGaussianBlur stdDeviation="4"/>
<feComposite in2="hardAlpha" operator="out"/>
<feColorMatrix type="matrix" values="0 0 0 0 0.411765 0 0 0 0 0.866667 0 0 0 0 0.772549 0 0 0 1 0"/>
<feBlend mode="normal" in2="BackgroundImageFix" result="effect1_dropShadow_200_17"/>
<feBlend mode="normal" in="SourceGraphic" in2="effect1_dropShadow_200_17" result="shape"/>
</filter>
<linearGradient id="paint0_linear_200_17" x1="259.88" y1="44.1578" x2="473.352" y2="311.958" gradientUnits="userSpaceOnUse">
<stop stop-color="#69DDC5" stop-opacity="0"/>
<stop offset="0.427626" stop-color="#69DDC5"/>
<stop offset="1" stop-color="#69DDC5" stop-opacity="0"/>
</linearGradient>
<linearGradient id="paint1_linear_200_17" x1="278.3" y1="28.2435" x2="491.772" y2="296.044" gradientUnits="userSpaceOnUse">
<stop stop-color="#69DDC5" stop-opacity="0"/>
<stop offset="0.427626" stop-color="#69DDC5"/>
<stop offset="1" stop-color="#69DDC5" stop-opacity="0"/>
</linearGradient>
<linearGradient id="paint2_linear_200_17" x1="299.153" y1="10.6828" x2="512.625" y2="278.483" gradientUnits="userSpaceOnUse">
<stop stop-color="#69DDC5" stop-opacity="0"/>
<stop offset="0.427626" stop-color="#69DDC5"/>
<stop offset="1" stop-color="#69DDC5" stop-opacity="0"/>
</linearGradient>
</defs>
</svg>
