<svg width="153" height="98" viewBox="0 0 153 98" fill="none" xmlns="http://www.w3.org/2000/svg">
<circle cx="30" cy="68" r="26" stroke="#4FB19D" stroke-width="8"/>
<circle cx="123" cy="68" r="26" stroke="#4FB19D" stroke-width="8"/>
<path d="M51.5 26L31.969 64.597C31.2958 65.9273 32.2626 67.5 33.7535 67.5H73M51.5 26L73 67.5M51.5 26H103.697C105.398 26 106.323 27.989 105.226 29.2894L73 67.5M51.5 26L44.5 11M89 4L91.4962 5.6641C91.8247 5.88312 92.2107 6 92.6056 6H104.454C105.364 6 106.16 6.61515 106.389 7.49644L122 67.5" stroke="#4FB19D" stroke-width="8" stroke-linecap="round" stroke-linejoin="round"/>
<path d="M34.5 8H60L35.5 15L34.5 8Z" fill="#4FB19D" stroke="#4FB19D" stroke-width="5" stroke-linecap="round" stroke-linejoin="round"/>
</svg>
