<?xml version="1.0" encoding="UTF-8"?>
<svg id="Calque_1" data-name="Calque 1" xmlns="http://www.w3.org/2000/svg" viewBox="0 0 418.21 566.93">
  <defs>
    <style>
      .cls-1 {
        fill: #4fb19d;
      }
    </style>
  </defs>
  <path class="cls-1" d="M6.6,549.24s73.7,2.51,120.68-8.86c69.44-16.98,135.95-63.19,179.26-119.14,26.95-34.82,44.76-81.39,55.64-110.52,16.36-43.79,38.85-86.16,42.47-133.29,4.7-61.16-21.4-129.11-76.99-154.36-34.59-15.71-78.35-14.63-115.58-7.2-52.37,10.45-73.53,30.93-98.52,62.05-11.59,14.43-18.76,31.85-23.75,48.4-12.59,41.66-2.81,87.92,29.25,121.89,21.87,23.18,47.57,34.84,77.22,34.84,21.58,0,39.49-4.28,54.17-12.99,5.87-3.4,10.42-5.17,13.36-5.17,3.67,0,7.05,1.92,10.57,6.05,3.52,4.43,5.29,10.78,5.29,18.75,0,42.37-13.21,83.56-39.35,123.57-26.28,40.01-72.53,79.13-123.18,101.57-50.21,22.15-110.55,16.39-110.55,16.39v18.01Z"/>
</svg>