<svg width="74" height="126" viewBox="0 0 74 126" fill="none" xmlns="http://www.w3.org/2000/svg">
<path d="M43.5264 93.1328C43.5264 104 28.2529 104 28.2529 93.1328C28.2529 82.2656 28.2529 83.8359 28.2529 83.8359C28.2529 78.1361 29.8301 73.2109 32.9844 69.0605C34.9212 66.5703 37.8818 63.4437 41.8662 59.6807C42.6409 59.0166 43.9967 57.8268 45.9336 56.1113C54.2897 48.6406 58.5231 41.1699 58.6338 33.6992C58.6338 25.7305 55.1751 20.0583 48.2578 16.6826L43.0283 14.9395C41.0915 14.4967 39.0439 14.2754 36.8857 14.2754C27.5889 14.2754 21.2526 17.568 17.877 24.1533C15.9401 28.027 15.4434 28.1758 14.9717 40.8379C14.5 53.5 0.52832 52.791 0.52832 40.8379C0.52832 28.8848 3.07389 19.6156 8.16504 13.0303C13.3115 6.44499 20.9759 2.57129 31.1582 1.40918C33.3164 1.13249 35.5299 0.994141 37.7988 0.994141C52.0762 0.994141 62.3691 5.69792 68.6777 15.1055L71.417 20.252C73.1325 24.347 73.9902 28.8294 73.9902 33.6992C73.9902 41.6126 71.085 48.9173 65.2744 55.6133C63.1162 58.2142 60.3493 61.0365 56.9736 64.0801C49.835 70.6654 45.6846 75.4798 44.5225 78.5234C43.8584 80.2389 43.5264 82.4525 43.5264 85.1641C43.5264 85.1641 43.5264 82.2656 43.5264 93.1328Z" fill="#4FB19D"/>
<circle cx="36" cy="118" r="8" fill="#4FB19D"/>
</svg>
