<svg width="87" height="104" viewBox="0 0 87 104" fill="none" xmlns="http://www.w3.org/2000/svg">
<path fill-rule="evenodd" clip-rule="evenodd" d="M43.5 85.3617C45.383 85.3617 73 45.7924 73 29.5C73 13.2076 59.7924 0 43.5 0C27.2076 0 14 13.2076 14 29.5C14 45.7924 41.617 85.3617 43.5 85.3617ZM43.5 74.0639C44.9022 74.0639 65.4681 41.6315 65.4681 29.9459C65.4681 18.2603 55.6326 8.78729 43.5 8.78729C31.3674 8.78729 21.5319 18.2603 21.5319 29.9459C21.5319 41.6315 42.0978 74.0639 43.5 74.0639Z" fill="#4FB19D"/>
<circle cx="44.1276" cy="30.1276" r="10.8085" stroke="#4FB19D" stroke-width="6"/>
<path fill-rule="evenodd" clip-rule="evenodd" d="M29.6765 70.8763C12.4288 73.1338 0 79.4997 0 87C0 96.3888 19.4756 104 43.5 104C67.5244 104 87 96.3888 87 87C87 79.4997 74.5712 73.1338 57.3235 70.8763C55.6243 73.5714 53.9601 76.1042 52.4071 78.3852C59.9324 79.0484 66.4602 80.5205 71.3472 82.4304C74.7372 83.7552 76.9364 85.135 78.1525 86.2587C78.4948 86.5749 78.7111 86.8223 78.8454 87C78.7111 87.1777 78.4948 87.4251 78.1525 87.7413C76.9364 88.8649 74.7372 90.2448 71.3472 91.5696C64.6168 94.1999 54.7742 96 43.5 96C32.2258 96 22.3832 94.1999 15.6528 91.5696C12.2628 90.2448 10.0636 88.8649 8.84751 87.7413C8.50521 87.4251 8.28888 87.1777 8.15461 87C8.28888 86.8223 8.50521 86.5749 8.84751 86.2587C10.0636 85.135 12.2628 83.7552 15.6528 82.4304C20.5398 80.5205 27.0677 79.0484 34.5929 78.3852C33.0399 76.1042 31.3757 73.5714 29.6765 70.8763ZM79.0499 86.6616C79.0514 86.6617 79.0472 86.6767 79.0331 86.7067C79.0414 86.6766 79.0485 86.6616 79.0499 86.6616ZM7.95007 86.6616C7.95151 86.6616 7.95857 86.6766 7.96695 86.7067C7.95283 86.6767 7.94864 86.6617 7.95007 86.6616ZM7.95008 87.3384C7.94864 87.3383 7.95283 87.3233 7.96695 87.2933C7.95857 87.3234 7.95151 87.3384 7.95008 87.3384ZM79.0331 87.2933C79.0472 87.3233 79.0514 87.3383 79.0499 87.3383C79.0485 87.3384 79.0414 87.3234 79.0331 87.2933Z" fill="#4FB19D"/>
</svg>
