<svg width="59" height="94" viewBox="0 0 59 94" fill="none" xmlns="http://www.w3.org/2000/svg">
<path fill-rule="evenodd" clip-rule="evenodd" d="M30.053 0H29.8833C29.9116 3.8489e-05 29.9399 5.77899e-05 29.9682 5.77899e-05C29.9964 5.77899e-05 30.0247 3.8489e-05 30.053 0ZM56.682 36.4152C56.682 50.6252 31.6733 90.0639 29.9681 90.0639C28.263 90.0639 3.25427 50.6252 3.25427 36.4152C3.25427 22.2052 15.2145 10.6857 29.9681 10.6857C44.7218 10.6857 56.682 22.2052 56.682 36.4152Z" fill="#4FB19D"/>
<path fill-rule="evenodd" clip-rule="evenodd" d="M29.5 93.3617C31.383 93.3617 59 53.7924 59 37.5C59 21.2076 45.7924 8 29.5 8C13.2076 8 0 21.2076 0 37.5C0 53.7924 27.617 93.3617 29.5 93.3617ZM29.5 82.0639C30.9022 82.0639 51.4681 49.6315 51.4681 37.9459C51.4681 26.2603 41.6326 16.7873 29.5 16.7873C17.3674 16.7873 7.53191 26.2603 7.53191 37.9459C7.53191 49.6315 28.0978 82.0639 29.5 82.0639Z" fill="#4FB19D"/>
<path fill-rule="evenodd" clip-rule="evenodd" d="M29.5 93.3617C31.383 93.3617 59 53.7924 59 37.5C59 21.2076 45.7924 8 29.5 8C13.2076 8 0 21.2076 0 37.5C0 53.7924 27.617 93.3617 29.5 93.3617ZM29.5 82.0639C30.9022 82.0639 51.4681 49.6315 51.4681 37.9459C51.4681 26.2603 41.6326 16.7873 29.5 16.7873C17.3674 16.7873 7.53191 26.2603 7.53191 37.9459C7.53191 49.6315 28.0978 82.0639 29.5 82.0639Z" fill="#4FB19D"/>
<circle cx="30.1276" cy="38.1276" r="10.8085" fill="#EBE9D9" stroke="#EBE9D9" stroke-width="6"/>
</svg>
