<svg width="37" height="60" viewBox="0 0 37 60" fill="none" xmlns="http://www.w3.org/2000/svg">
<mask id="path-1-inside-1_172_124" fill="white">
<path fill-rule="evenodd" clip-rule="evenodd" d="M34.1637 0.286618C37.5517 0.757025 37.785 5.19178 35.2147 7.44857C28.9527 12.9469 25 21.0118 25 30C25 38.9882 28.9527 47.0531 35.2147 52.5514C37.785 54.8082 37.5517 59.243 34.1637 59.7134C32.8029 59.9023 31.4129 60 30 60C13.4315 60 0 46.5685 0 30C0 13.4315 13.4315 0 30 0C31.4129 0 32.8029 0.0976672 34.1637 0.286618Z"/>
</mask>
<path d="M35.2147 52.5514L39.1735 48.0428L35.2147 52.5514ZM34.1637 59.7134L34.9889 65.6564L34.1637 59.7134ZM31 30C31 22.8104 34.1538 16.3647 39.1735 11.9572L31.256 2.9399C23.7516 9.52899 19 19.2132 19 30H31ZM39.1735 48.0428C34.1538 43.6353 31 37.1896 31 30H19C19 40.7868 23.7516 50.471 31.256 57.0601L39.1735 48.0428ZM33.3386 53.7704C32.2503 53.9215 31.136 54 30 54V66C31.6897 66 33.3554 65.8832 34.9889 65.6564L33.3386 53.7704ZM30 54C16.7452 54 6 43.2548 6 30H-6C-6 49.8823 10.1177 66 30 66V54ZM6 30C6 16.7452 16.7452 6 30 6V-6C10.1177 -6 -6 10.1177 -6 30H6ZM30 6C31.136 6 32.2503 6.07851 33.3386 6.22961L34.9889 -5.65637C33.3554 -5.88317 31.6897 -6 30 -6V6ZM31.256 57.0601C31.0647 56.8922 30.9056 56.6335 30.96 56.1418C30.9931 55.8431 31.1353 55.2902 31.6275 54.7347C32.1686 54.1238 32.8458 53.8388 33.3386 53.7704L34.9889 65.6564C39.8565 64.9805 42.4779 61.1579 42.8871 57.4628C43.2626 54.072 41.935 50.4675 39.1735 48.0428L31.256 57.0601ZM39.1735 11.9572C41.935 9.53254 43.2626 5.92805 42.8871 2.53723C42.4779 -1.15795 39.8565 -4.98051 34.9889 -5.65637L33.3386 6.22961C32.8459 6.16119 32.1686 5.87623 31.6275 5.26534C31.1353 4.7098 30.9931 4.15688 30.96 3.85817C30.9056 3.36653 31.0647 3.10781 31.256 2.9399L39.1735 11.9572Z" fill="#4FB19D" mask="url(#path-1-inside-1_172_124)"/>
</svg>
