<svg width="40" height="40" viewBox="0 0 40 40" fill="none" xmlns="http://www.w3.org/2000/svg">
<mask id="path-1-inside-1_12_114" fill="white">
<path fill-rule="evenodd" clip-rule="evenodd" d="M20.8902 0C22.6077 0 24 1.39232 24 3.10984V3.33334C24 6.02143 27.25 7.36763 29.1508 5.46686C30.3291 4.28855 32.2395 4.28855 33.4178 5.46686L34.8158 6.86481C35.9896 8.03863 35.9896 9.94176 34.8158 11.1156C32.9223 13.0091 34.2898 16.2467 36.9677 16.2467C38.6363 16.2467 40 17.5994 40 19.268V21.2895C40 22.9227 38.676 24.2467 37.0428 24.2467H36.9411C34.3441 24.2467 33.0435 27.3866 34.8799 29.223C36.0183 30.3614 36.0183 32.2071 34.8799 33.3455L33.4178 34.8076C32.2395 35.9859 30.3291 35.9859 29.1508 34.8076C27.25 32.9069 24 34.2738 24 36.9619C24 38.635 22.6437 40 20.9706 40H18.949C17.3203 40 16 38.6797 16 37.051C16 34.4236 12.8235 33.1079 10.9657 34.9657L10.8076 35.1237C9.61981 36.3115 7.69396 36.3115 6.50614 35.1237L5.15892 33.7765C3.9666 32.5842 3.9744 30.6432 5.16672 29.4509C7.08029 27.5373 5.74377 24.2467 3.03758 24.2467C1.35997 24.2467 0 22.8867 0 21.2091V19.3484C0 17.6354 1.38868 16.2467 3.10169 16.2467C5.86501 16.2467 7.19824 12.8551 5.24428 10.9011C4.01654 9.6734 3.99528 7.66158 5.22301 6.43385L6.5061 5.15076C7.69393 3.96293 9.62589 3.96905 10.8137 5.15688C12.7222 7.06532 16 5.72838 16 3.02944C16 1.35633 17.3563 0 19.0294 0H20.8902ZM20 26.6667C23.6819 26.6667 26.6667 23.6819 26.6667 20C26.6667 16.3181 23.6819 13.3333 20 13.3333C16.3181 13.3333 13.3333 16.3181 13.3333 20C13.3333 23.6819 16.3181 26.6667 20 26.6667Z"/>
</mask>
<path d="M29.1508 5.46686L27.7366 4.05265V4.05265L29.1508 5.46686ZM33.4178 5.46686L32.0036 6.88108V6.88108L33.4178 5.46686ZM34.8158 11.1156L36.23 12.5298L36.23 12.5298L34.8158 11.1156ZM34.8799 29.223L33.4657 30.6372L34.8799 29.223ZM29.1508 34.8076L27.7365 36.2218L29.1508 34.8076ZM10.9657 34.9657L12.3799 36.3799L12.3799 36.3799L10.9657 34.9657ZM10.8076 35.1237L9.39343 33.7095L9.39342 33.7095L10.8076 35.1237ZM6.50614 35.1237L5.09192 36.5379L5.09192 36.5379L6.50614 35.1237ZM5.15892 33.7765L6.57313 32.3623L6.57313 32.3623L5.15892 33.7765ZM5.16672 29.4509L3.75251 28.0367H3.75251L5.16672 29.4509ZM5.24428 10.9011L6.65849 9.48692L5.24428 10.9011ZM6.5061 5.15076L5.09188 3.73655L6.5061 5.15076ZM10.8137 5.15688L12.2279 3.74266L10.8137 5.15688ZM26 3.10984C26 0.287751 23.7122 -2 20.8902 -2V2C21.5031 2 22 2.49689 22 3.10984H26ZM26 3.33334V3.10984H22V3.33334H26ZM27.7366 4.05265C27.0957 4.69349 26 4.23962 26 3.33334H22C22 7.80324 27.4043 10.0418 30.565 6.88108L27.7366 4.05265ZM34.832 4.05265C32.8727 2.09329 29.6959 2.09329 27.7366 4.05265L30.565 6.88108C30.9623 6.48381 31.6063 6.48381 32.0036 6.88108L34.832 4.05265ZM36.23 5.4506L34.832 4.05265L32.0036 6.88108L33.4016 8.27903L36.23 5.4506ZM36.23 12.5298C38.1849 10.5749 38.1848 7.40546 36.23 5.4506L33.4016 8.27903C33.7943 8.6718 33.7943 9.3086 33.4016 9.70136L36.23 12.5298ZM36.9677 14.2467C36.034 14.2467 35.623 13.1368 36.23 12.5298L33.4016 9.70136C30.2216 12.8814 32.5457 18.2467 36.9677 18.2467V14.2467ZM42 19.268C42 16.4853 39.7313 14.2467 36.9677 14.2467V18.2467C37.5412 18.2467 38 18.7134 38 19.268H42ZM42 21.2895V19.268H38V21.2895H42ZM37.0428 26.2467C39.7806 26.2467 42 24.0273 42 21.2895H38C38 21.8182 37.5715 22.2467 37.0428 22.2467V26.2467ZM36.9411 26.2467H37.0428V22.2467H36.9411V26.2467ZM36.2941 27.8088C35.7176 27.2324 36.1259 26.2467 36.9411 26.2467V22.2467C32.5623 22.2467 30.3693 27.5409 33.4657 30.6372L36.2941 27.8088ZM36.2941 34.7598C38.2135 32.8403 38.2135 29.7283 36.2941 27.8088L33.4657 30.6372C33.823 30.9946 33.823 31.574 33.4657 31.9313L36.2941 34.7598ZM34.832 36.2218L36.2941 34.7598L33.4657 31.9313L32.0036 33.3934L34.832 36.2218ZM27.7365 36.2218C29.6959 38.1812 32.8726 38.1812 34.832 36.2218L32.0036 33.3934C31.6063 33.7907 30.9622 33.7907 30.565 33.3934L27.7365 36.2218ZM26 36.9619C26 36.0262 27.1165 35.6018 27.7365 36.2218L30.565 33.3934C27.3835 30.212 22 32.5214 22 36.9619H26ZM20.9706 42C23.7557 42 26 39.7322 26 36.9619H22C22 37.5379 21.5317 38 20.9706 38V42ZM18.949 42H20.9706V38H18.949V42ZM14 37.051C14 39.7842 16.2158 42 18.949 42V38C18.4249 38 18 37.5751 18 37.051H14ZM12.3799 36.3799C12.9778 35.782 14 36.2055 14 37.051H18C18 32.6418 12.6692 30.4337 9.55146 33.5515L12.3799 36.3799ZM12.2218 36.5379L12.3799 36.3799L9.55147 33.5515L9.39343 33.7095L12.2218 36.5379ZM5.09192 36.5379C7.06079 38.5068 10.253 38.5068 12.2218 36.5379L9.39342 33.7095C8.98664 34.1163 8.32713 34.1163 7.92035 33.7095L5.09192 36.5379ZM3.74471 35.1907L5.09192 36.5379L7.92035 33.7095L6.57313 32.3623L3.74471 35.1907ZM3.75251 28.0367C1.78579 30.0034 1.7647 33.2107 3.74471 35.1907L6.57313 32.3623C6.16849 31.9576 6.16301 31.2831 6.58094 30.8651L3.75251 28.0367ZM3.03758 26.2467C3.9248 26.2467 4.43248 27.3567 3.75251 28.0367L6.58094 30.8651C9.7281 27.718 7.56274 22.2467 3.03758 22.2467V26.2467ZM-2 21.2091C-2 23.9913 0.2554 26.2467 3.03758 26.2467V22.2467C2.46454 22.2467 2 21.7822 2 21.2091H-2ZM-2 19.3484V21.2091H2V19.3484H-2ZM3.10169 14.2467C0.284105 14.2467 -2 16.5308 -2 19.3484H2C2 18.7399 2.49325 18.2467 3.10169 18.2467V14.2467ZM3.83006 12.3154C4.59364 13.0789 3.98541 14.2467 3.10169 14.2467V18.2467C7.7446 18.2467 9.80283 12.6313 6.65849 9.48692L3.83006 12.3154ZM3.8088 5.01963C1.78257 7.04586 1.83884 10.3241 3.83006 12.3154L6.65849 9.48692C6.19424 9.02268 6.20798 8.2773 6.63723 7.84806L3.8088 5.01963ZM5.09188 3.73655L3.8088 5.01963L6.63723 7.84806L7.92031 6.56498L5.09188 3.73655ZM12.2279 3.74266C10.2643 1.77902 7.06598 1.76245 5.09188 3.73655L7.92031 6.56498C8.32187 6.16342 8.9875 6.15908 9.39951 6.57109L12.2279 3.74266ZM14 3.02944C14 3.91733 12.8972 4.41189 12.2279 3.74266L9.39951 6.57109C12.5472 9.71875 18 7.53943 18 3.02944H14ZM19.0294 -2C16.2518 -2 14 0.251758 14 3.02944H18C18 2.4609 18.4609 2 19.0294 2V-2ZM20.8902 -2H19.0294V2H20.8902V-2ZM24.6667 20C24.6667 22.5773 22.5773 24.6667 20 24.6667V28.6667C24.7865 28.6667 28.6667 24.7865 28.6667 20H24.6667ZM20 15.3333C22.5773 15.3333 24.6667 17.4227 24.6667 20H28.6667C28.6667 15.2135 24.7865 11.3333 20 11.3333V15.3333ZM15.3333 20C15.3333 17.4227 17.4227 15.3333 20 15.3333V11.3333C15.2135 11.3333 11.3333 15.2135 11.3333 20H15.3333ZM20 24.6667C17.4227 24.6667 15.3333 22.5773 15.3333 20H11.3333C11.3333 24.7865 15.2135 28.6667 20 28.6667V24.6667Z" fill="#4FB19D" mask="url(#path-1-inside-1_12_114)"/>
</svg>
