<svg width="72" height="82" viewBox="0 0 72 82" fill="none" xmlns="http://www.w3.org/2000/svg">
<path fill-rule="evenodd" clip-rule="evenodd" d="M6.73028 28.2418C6.33781 21.4473 9.08534 14.7107 16.728 7.12436C19.4615 9.35596 21.2194 11.4039 22.5324 13.6388C23.8697 15.9152 24.8205 18.5073 25.7886 21.9563C24.3876 22.603 23.1868 23.2637 22.0821 24.0134C20.3688 25.176 19.0012 26.4754 17.5255 28.059C16.9116 28.7178 16.6261 29.6175 16.7478 30.5097C17.3286 34.7676 18.2879 38.0153 19.8045 41.0777C21.2916 44.0804 23.266 46.7982 25.6751 49.9749L26.358 49.4571L25.675 49.9751C28.0842 53.1516 30.1689 55.7859 32.6593 58.0277C35.1992 60.314 38.0679 62.1136 42.0113 63.8212C42.8377 64.179 43.781 64.1467 44.581 63.7332C46.5039 62.7393 48.1239 61.7728 49.7056 60.4366C50.7253 59.575 51.6855 58.5968 52.686 57.4221C55.7461 59.2845 57.9858 60.8992 59.8172 62.8009C61.6151 64.6679 63.1131 66.913 64.5248 70.1471C55.1584 75.4606 47.9305 76.2895 41.4935 74.0792C34.3163 71.6146 27.4155 65.1605 19.4686 54.6821L19.4687 54.682C11.5218 44.2036 7.16788 35.8178 6.73028 28.2418ZM14.688 58.3076C6.62746 47.6794 1.28767 38.0647 0.740267 28.5878C0.177443 18.844 4.68982 9.98091 14.4874 0.969858C15.5406 0.00123371 17.1312 -0.0887897 18.287 0.754821C22.6562 3.94406 25.5748 6.9723 27.7057 10.5996C29.8011 14.1664 31.0253 18.1364 32.2656 22.9472C32.6431 24.4115 31.8718 25.9279 30.466 26.485C28.1403 27.4069 26.6521 28.1632 25.4512 28.9781C24.5751 29.5727 23.7912 30.2393 22.9094 31.1175C23.42 34.1175 24.1589 36.3505 25.1813 38.4149C26.3881 40.8519 28.0409 43.165 30.4558 46.3494L30.4557 46.3495C32.8707 49.5336 34.6523 51.7489 36.6735 53.5683C38.3857 55.1095 40.3366 56.4232 43.0877 57.724C44.1713 57.1117 45.0246 56.5366 45.8334 55.8533C46.942 54.9167 48.0717 53.6876 49.5866 51.6967C50.5022 50.4933 52.1704 50.1595 53.4787 50.9179C57.7767 53.4097 61.2694 55.6592 64.1389 58.6389C67.0572 61.6692 69.1861 65.2963 71.0788 70.3637C71.5795 71.7041 71.0638 73.2116 69.847 73.9645C58.5275 80.9688 48.7759 82.9237 39.5449 79.7539C30.5668 76.671 22.7484 68.936 14.6878 58.3077L14.688 58.3076Z" fill="#69DDC5"/>
</svg>
