<svg width="64" height="64" viewBox="0 0 64 64" fill="none" xmlns="http://www.w3.org/2000/svg">
<circle cx="32" cy="32" r="14" stroke="#4FB19D" stroke-width="6"/>
<rect x="30" width="4" height="10" rx="2" fill="#4FB19D"/>
<rect x="30" y="54" width="4" height="10" rx="2" fill="#4FB19D"/>
<rect y="34" width="4" height="10" rx="2" transform="rotate(-90 0 34)" fill="#4FB19D"/>
<rect x="54" y="34" width="4" height="10" rx="2" transform="rotate(-90 54 34)" fill="#4FB19D"/>
<rect x="46" y="48.8284" width="4" height="10" rx="2" transform="rotate(-45 46 48.8284)" fill="#4FB19D"/>
<rect x="15.071" y="46" width="4" height="10" rx="2" transform="rotate(45 15.071 46)" fill="#4FB19D"/>
<rect x="53.071" y="8" width="4" height="10" rx="2" transform="rotate(45 53.071 8)" fill="#4FB19D"/>
<rect x="8" y="10.8284" width="4" height="10" rx="2" transform="rotate(-45 8 10.8284)" fill="#4FB19D"/>
</svg>
