<?xml version="1.0" encoding="utf-8"?>
<!-- Generator: Adobe Illustrator 26.5.1, SVG Export Plug-In . SVG Version: 6.00 Build 0)  -->
<svg version="1.1" id="Calque_1" xmlns="http://www.w3.org/2000/svg" xmlns:xlink="http://www.w3.org/1999/xlink" x="0px" y="0px"
	 viewBox="0 0 1190.55 841.89" style="enable-background:new 0 0 1190.55 841.89;" xml:space="preserve">
<style type="text/css">
	.st0{fill:#4FB19D;}
</style>
<g>
	<path class="st0" d="M619.52,376.79c8.93,0,13.29,3.65,13.29,11.34h7.49v-18.77c-6.71-1.82-13.1-3.52-19.68-3.52
		c-20.2,0-31.54,9.51-31.54,25.35c0,11.53,7.1,18.44,20.07,26.65c10.16,6.58,17.14,10.03,17.14,17.33c0,5.08-4.37,8.93-12.38,8.93
		c-5.86,0-10.43-2.22-15.9-5.86c-1.11-0.2-2.02-0.2-2.74-0.2c-3.84,0-5.47,1.11-5.47,3.65c0,7.69,10.62,14.07,26.26,14.07
		c17.53,0,29.39-10.43,29.39-25.74c0-9.12-3.52-16.22-10.95-22.74c-2.02-1.82-6.97-4.43-14.2-8.8c-8.08-4.89-12.05-8.93-12.05-12.77
		C608.25,380.11,612.23,376.79,619.52,376.79z"/>
	<path class="st0" d="M575.02,393.79c0-34.79-28.34-63.14-63.14-63.14c-34.73,0-63.07,28.34-63.07,63.14
		c0,34.79,28.34,63.07,63.07,63.07C546.68,456.86,575.02,428.59,575.02,393.79z M466.01,393.79c0-25.28,20.59-45.87,45.87-45.87
		c25.35,0,45.87,20.59,45.87,45.87c0,25.28-20.52,45.87-45.87,45.87C486.6,439.66,466.01,419.07,466.01,393.79z"/>
	<path class="st0" d="M354.46,341.01c1.24-3.45,1.82-5.86,1.82-6.71c0-4.76-3.26-8.08-7.88-8.08c-7.82,0-8.54,10.62-15.83,32.12
		h15.83L354.46,341.01z"/>
	<path class="st0" d="M387.82,328.05v9.12h1.43c10.62,0,11.34,4.04,11.34,15.12v52.91l0.2,28.28v1.82c0,12.71,4.5,19.29,13.81,19.29
		h18.96v-7.82h-1.63c-9.12,0-10.95-3.26-10.95-13.29V328.05H387.82z"/>
	<path class="st0" d="M221.74,391.51l22.22,56.17c2.41,5.99,5.08,8.93,10.23,8.93c5.08,0,7.62-2.93,9.84-8.93L291,375.09
		c0.2-0.72,0.39-1.43,0.39-2.15c0-3.32-2.61-6.06-6.19-6.06c-2.93,0-5.15,1.5-6.06,3.84l-21.89,58.71l-23.65-60.86h-69.59v8.73
		h41.83C216.98,377.31,218.09,382.19,221.74,391.51z"/>
	<path class="st0" d="M936.37,267.93c-5.59,18.39-1.25,38.8,12.98,53.79c9.71,10.23,21.11,15.38,34.27,15.38
		c9.58,0,17.53-1.89,24.04-5.73c2.61-1.5,4.63-2.28,5.93-2.28c1.63,0,3.13,0.85,4.69,2.67c1.56,1.95,2.35,4.76,2.35,8.28
		c0,18.7-5.86,36.88-17.46,54.54c-11.66,17.66-32.19,34.92-54.67,44.83c-22.28,9.77-49.06,7.23-49.06,7.23h-1.69
		c-9.32,0-11.47-3.32-11.47-13.36v-39.55c0-18.05-7.3-27.17-21.89-27.17c-11.47,0-20.2,5.47-27.69,16.94l-0.72,1.11v-16.03h-33.95
		v8.54h0.91c11.86,0,12.45,3.65,12.45,15.12l0.2,62.36h20.39v-44.5c0-6.19,3.26-14.73,9.84-22.02c3.45-3.84,6.91-5.67,9.64-5.67
		c7.69,0,9.32,7.49,9.32,25.35v32.12c0,9.64,3.26,14.73,9.32,14.73h25.35c0,0,32.71,1.11,53.56-3.91
		c30.82-7.49,60.34-27.89,79.56-52.58c11.96-15.37,19.87-35.92,24.7-48.78c7.26-19.33,17.24-38.03,18.85-58.82
		c2.09-26.99-9.5-56.98-34.17-68.12c-15.35-6.94-34.77-6.46-51.3-3.18c-23.24,4.61-32.64,13.65-43.72,27.38
		C941.77,252.94,938.59,260.63,936.37,267.93z"/>
	<path class="st0" d="M305.4,410.08c0,28.86,16.81,46.52,44.31,46.52c17.33,0,27.17-4.37,27.17-9.32c0-0.33,0-0.91-0.2-1.24
		c-1.24-2.22-2.74-3.32-4.17-3.32c-3.45,0-8.21,2.22-14.99,2.22c-9.97,0-17.66-4.04-23.33-12.58c-3.45-5.28-6.39-14.99-6.39-21.18
		c0-4.37,1.43-6.19,6.06-6.19h28.8c8.93,0,14.01-4.89,14.01-12.9c0-13.36-12.97-25.35-32.97-25.35
		C318.89,366.75,305.4,381.87,305.4,410.08z M343.32,376.39c5.47,0,9.32,3.06,11.53,9.25c0.85,2.41,1.24,4.24,1.24,5.67
		c0,2.41-2.74,2.93-8.73,2.93c-2.02,0-3.84-0.2-5.86-0.2h-12.97C330.55,382.39,335.5,376.39,343.32,376.39z"/>
	<path class="st0" d="M757.4,366.56c-19.68,0-31.93,8.93-32.32,22.22l11.53,11.14c7.3-0.2,11.27-3.13,12.38-9.71
		c1.11-6.71,0.52-14.01,8.21-14.01c7.1,0,9.12,7.3,9.12,21.89v8.01c-30.1,1.43-45.22,11.27-45.22,28.6
		c0,12.05,10.95,21.89,25.35,21.89c10.23,0,14.6-4.95,20.2-9.12c2.61-1.82,6.26-3.06,10.62-3.06h10.03V399.2
		C787.3,375.81,779.42,366.56,757.4,366.56z M766.32,433.28c-3.13,6.39-9.32,10.03-14.01,10.03c-5.15,0-8.6-4.43-8.6-11.66
		c0-9.71,7.62-14.99,22.61-15.7V433.28z"/>
	<path class="st0" d="M679.53,328.05v5.47c0,23.33-4.56,34.27-17.33,34.27c-3.13,0.91-4.76,2.93-4.76,5.67
		c0,3.13,1.82,5.08,5.15,5.47h9.12v54.86c0,13.16,5.08,20.79,12.9,20.79h21.89v-7.82c-8.93-0.52-13.16-4.56-14.01-13.29v-54.54
		h22.02v-11.14H692.5v-39.75H679.53z"/>
</g>
</svg>
